{"title":"Deadpool","uid":13569890,"size":1495865662,"categoryP":"video","categoryS":"movies","magnet":"?xt=urn:btih:a0414277ca2779cbbeae4aa00d859b6133511c8a&amp;dn=Deadpool&amp;tr=udp%3A%2F%2Ftracker.leechers-paradise.org%3A6969&amp;tr=udp%3A%2F%2Fzer0day.ch%3A1337&amp;tr=udp%3A%2F%2Fopen.demonii.com%3A1337&amp;tr=udp%3A%2F%2Ftracker.coppersurfer.tk%3A6969&amp;tr=udp%3A%2F%2Fexodus.desync.com%3A6969","seeders":0,"leechers":3,"uploader":"john80701","files":1,"time":1455666394,"description":"Format                                   : Matroska\r\nFormat version                           : Version 4 / Version 2\r\nFile size                                : 1.39 GiB\r\nDuration                                 : 1h 36mn\r\nOverall bit rate                         : 2 068 Kbps\r\nEncoded date                             : UTC 2016-02-15 16:22:34\r\nWriting application                      : mkvmerge v8.8.0 ('Wind at my back') 32bit\r\nWriting library                          : libebml v1.3.3 + libmatroska v1.4.4\r\nDURATION                                 : 01:36:26.720000000\r\nNUMBER_OF_FRAMES                         : 180835\r\nNUMBER_OF_BYTES                          : 138881280\r\n_STATISTICS_WRITING_APP                  : mkvmerge v8.8.0 ('Wind at my back') 32bit\r\n_STATISTICS_WRITING_DATE_UTC             : 2016-02-15 16:22:34\r\n_STATISTICS_TAGS                         : BPS DURATION NUMBER_OF_FRAMES NUMBER_OF_BYTES\r\n\r\nVideo\r\nID                                       : 1\r\nFormat                                   : MPEG-4 Visual\r\nFormat profile                           :   \r\nFormat settings, BVOP                    : No\r\nFormat settings, QPel                    : No\r\nFormat settings, GMC                     : No warppoints\r\nFormat settings, Matrix                  : Default (H.263)\r\nCodec ID                                 : XVID\r\nCodec ID/Hint                            : XviD\r\nDuration                                 : 1h 36mn\r\nBit rate                                 : 1 835 Kbps\r\nWidth                                    : 720 pixels\r\nHeight                                   : 404 pixels\r\nDisplay aspect ratio                     : 16:9\r\nFrame rate                               : 23.976 fps\r\nOriginal frame rate                      : 23.000 fps\r\nColor space                              : YUV\r\nChroma subsampling                       : 4:2:0\r\nBit depth                                : 8 bits\r\nScan type                                : Progressive\r\nCompression mode                         : Lossy\r\nBits/(Pixel*Frame)                       : 0.263\r\nStream size                              : 1.24 GiB (89%)\r\nWriting library                          : XviD 1.2.1 (UTC 2008-12-04)\r\nDefault                                  : Yes\r\nForced                                   : No\r\n\r\nAudio\r\nID                                       : 2\r\nFormat                                   : AC-3\r\nFormat/Info                              : Audio Coding 3\r\nMode extension                           : CM (complete main)\r\nFormat settings, Endianness              : Big\r\nCodec ID                                 : A_AC3\r\nDuration                                 : 1h 36mn\r\nBit rate mode                            : Constant\r\nBit rate                                 : 192 Kbps\r\nChannel(s)                               : 2 channels\r\nChannel positions                        : Front: L R\r\nSampling rate                            : 48.0 KHz\r\nBit depth                                : 16 bits\r\nCompression mode                         : Lossy\r\nStream size                              : 132 MiB (9%)\r\nDefault                                  : Yes\r\nForced                                   : No","torrent":{"xt":"urn:btih:a0414277ca2779cbbeae4aa00d859b6133511c8a","amp;dn":"Deadpool","amp;tr":["udp%3A%2F%2Ftracker.leechers-paradise.org%3A6969","udp%3A%2F%2Fzer0day.ch%3A1337","udp%3A%2F%2Fopen.demonii.com%3A1337","udp%3A%2F%2Ftracker.coppersurfer.tk%3A6969","udp%3A%2F%2Fexodus.desync.com%3A6969"],"infoHash":"a0414277ca2779cbbeae4aa00d859b6133511c8a","infoHashBuffer":{"type":"Buffer","data":[160,65,66,119,202,39,121,203,190,174,74,160,13,133,155,97,51,81,28,138]},"announce":[],"urlList":[]}}